<?xml version="1.0" encoding="UTF-8" standalone="no"?>
<!-- Created with Inkscape (http://www.inkscape.org/) -->

<svg
   xmlns:dc="http://purl.org/dc/elements/1.1/"
   xmlns:cc="http://creativecommons.org/ns#"
   xmlns:rdf="http://www.w3.org/1999/02/22-rdf-syntax-ns#"
   xmlns:svg="http://www.w3.org/2000/svg"
   xmlns="http://www.w3.org/2000/svg"
   xmlns:sodipodi="http://sodipodi.sourceforge.net/DTD/sodipodi-0.dtd"
   xmlns:inkscape="http://www.inkscape.org/namespaces/inkscape"
   width="512"
   height="512"
   id="svg2"
   version="1.1"
   inkscape:version="0.48.2 r9819"
   sodipodi:docname="openbr.svg">
  <defs
     id="defs4" />
  <sodipodi:namedview
     id="base"
     pagecolor="#ffffff"
     bordercolor="#666666"
     borderopacity="1.0"
     inkscape:pageopacity="0.0"
     inkscape:pageshadow="2"
     inkscape:zoom="1.1572757"
     inkscape:cx="391.0146"
     inkscape:cy="232.5551"
     inkscape:document-units="px"
     inkscape:current-layer="text3808"
     showgrid="false"
     inkscape:window-width="1222"
     inkscape:window-height="756"
     inkscape:window-x="58"
     inkscape:window-y="0"
     inkscape:window-maximized="1" />
  <metadata
     id="metadata7">
    <rdf:RDF>
      <cc:Work
         rdf:about="">
        <dc:format>image/svg+xml</dc:format>
        <dc:type
           rdf:resource="http://purl.org/dc/dcmitype/StillImage" />
        <dc:title />
      </cc:Work>
    </rdf:RDF>
  </metadata>
  <g
     inkscape:label="Layer 1"
     inkscape:groupmode="layer"
     id="layer1"
     transform="translate(0,-540.36218)">
    <rect
       style="fill:#ffffff;fill-opacity:0;fill-rule:evenodd;stroke:#000000;stroke-width:7.90251827;stroke-linecap:square;stroke-linejoin:miter;stroke-miterlimit:4;stroke-opacity:1;stroke-dasharray:none"
       id="rect2985"
       width="376.09747"
       height="376.09747"
       x="67.951263"
       y="640.31335" />
    <path
       sodipodi:type="arc"
       style="fill:#ffffff;fill-opacity:0;stroke:#000000;stroke-width:7.859694;stroke-miterlimit:4;stroke-opacity:1;stroke-dasharray:none"
       id="path2991"
       sodipodi:cx="350"
       sodipodi:cy="393.79074"
       sodipodi:rx="218.57143"
       sodipodi:ry="218.57143"
       d="m 568.57143,393.79074 a 218.57143,218.57143 0 1 1 -437.14286,0 218.57143,218.57143 0 1 1 437.14286,0 z"
       transform="matrix(1.0067358,0,0,1.0067358,-96.357534,399.91894)" />
    <g
       transform="scale(1.1432502,0.87469915)"
       style="font-size:602.20269775px;font-style:normal;font-weight:normal;line-height:125%;letter-spacing:0px;word-spacing:0px;fill:#000000;fill-opacity:1;stroke:none;font-family:Sans"
       id="text3808">
      <path
         d="m 118.95909,967.60375 0,113.18175 c 0,0 44.47301,42.4232 104.9639,42.4232 0,0 40.58712,1.41 80.06423,-27.2386 39.47711,-28.6486 51.03065,-47.8711 51.03066,-74.7948 0,-26.92372 -19.78245,-53.57155 -30.53818,-53.57155 -10.75573,10e-6 -100.55671,0 -100.55671,0 m -104.9639,-198.92553 0,146.33602 104.9639,0 104.9639,0 c 8.29626,0 30.25785,-16.66361 31.01367,-74.21155 0.75582,-57.54794 -22.71728,-72.12447 -31.01367,-72.12447 l -104.9639,0 m 0,-41.15701 c 0,0 68.80967,0 90.96871,0 22.15905,0 41.98556,0 41.98556,0 l 34.98797,54.87601 0,64.02201 c 0,28.9222 -5.34568,57.28993 -20.99278,77.74101 l -13.99519,18.29201 13.99519,18.292 c 14.09205,18.4186 20.99278,51.69325 20.99278,77.74105 l 0,128.044 -36.73737,0 0,-66.3085 c -33.40248,25.4228 -95.38324,66.0665 -131.20487,66.3085 -31.46502,-2.1586 -77.56755,-15.4535 -104.9639,-32.9326 l 0,32.9326 -34.98797,0 0,-80.0275 -3e-6,-358.98059"
         id="path3816"
         inkscape:connector-curvature="0"
         sodipodi:nodetypes="ccczzzccccszscccccsscssccccccccc" />
    </g>
  </g>
</svg>
